<svg xmlns="http://www.w3.org/2000/svg" xmlns:xlink="http://www.w3.org/1999/xlink" width="500" zoomAndPan="magnify" viewBox="0 0 375 374.999991" height="500" preserveAspectRatio="xMidYMid meet" version="1.2"><defs><clipPath id="a3457c1050"><path d="M 112.5 75.171875 L 262.5 75.171875 L 262.5 225.171875 L 112.5 225.171875 Z M 112.5 75.171875 "/></clipPath><clipPath id="7a38f2f1c8"><path d="M 187.5 75.171875 C 146.078125 75.171875 112.5 108.753906 112.5 150.171875 C 112.5 191.59375 146.078125 225.171875 187.5 225.171875 C 228.921875 225.171875 262.5 191.59375 262.5 150.171875 C 262.5 108.753906 228.921875 75.171875 187.5 75.171875 Z M 187.5 75.171875 "/></clipPath></defs><g id="01f0df8713"><g clip-rule="nonzero" clip-path="url(#a3457c1050)"><g clip-rule="nonzero" clip-path="url(#7a38f2f1c8)"><path style=" stroke:none;fill-rule:nonzero;fill:#33cc33;fill-opacity:1;" d="M 112.5 75.171875 L 262.5 75.171875 L 262.5 225.171875 L 112.5 225.171875 Z M 112.5 75.171875 "/></g></g><g style="fill:#ffffff;fill-opacity:1;"><g transform="translate(202.092764, 190.298719)"><path style="stroke:none" d="M 7.578125 0 L 7.578125 -53.765625 L 21.59375 -53.765625 L 21.59375 0 Z M 14.6875 -62.40625 C 12.257812 -62.40625 10.242188 -63.140625 8.640625 -64.609375 C 7.035156 -66.078125 6.234375 -67.898438 6.234375 -70.078125 C 6.234375 -72.378906 7.035156 -74.234375 8.640625 -75.640625 C 10.242188 -77.054688 12.257812 -77.765625 14.6875 -77.765625 C 17.125 -77.765625 19.125 -77.054688 20.6875 -75.640625 C 22.257812 -74.234375 23.046875 -72.378906 23.046875 -70.078125 C 23.046875 -67.898438 22.257812 -66.078125 20.6875 -64.609375 C 19.125 -63.140625 17.125 -62.40625 14.6875 -62.40625 Z M 14.6875 -62.40625 "/></g></g><g style="fill:#ffffff;fill-opacity:1;"><g transform="translate(143.721674, 190.298719)"><path style="stroke:none" d="M 7.578125 0 L 7.578125 -53.765625 L 21.59375 -53.765625 L 21.59375 0 Z M 14.6875 -62.40625 C 12.257812 -62.40625 10.242188 -63.140625 8.640625 -64.609375 C 7.035156 -66.078125 6.234375 -67.898438 6.234375 -70.078125 C 6.234375 -72.378906 7.035156 -74.234375 8.640625 -75.640625 C 10.242188 -77.054688 12.257812 -77.765625 14.6875 -77.765625 C 17.125 -77.765625 19.125 -77.054688 20.6875 -75.640625 C 22.257812 -74.234375 23.046875 -72.378906 23.046875 -70.078125 C 23.046875 -67.898438 22.257812 -66.078125 20.6875 -64.609375 C 19.125 -63.140625 17.125 -62.40625 14.6875 -62.40625 Z M 14.6875 -62.40625 "/></g></g><g style="fill:#ffffff;fill-opacity:1;"><g transform="translate(172.90722, 190.298719)"><path style="stroke:none" d="M 7.578125 0 L 7.578125 -53.765625 L 21.59375 -53.765625 L 21.59375 0 Z M 14.6875 -62.40625 C 12.257812 -62.40625 10.242188 -63.140625 8.640625 -64.609375 C 7.035156 -66.078125 6.234375 -67.898438 6.234375 -70.078125 C 6.234375 -72.378906 7.035156 -74.234375 8.640625 -75.640625 C 10.242188 -77.054688 12.257812 -77.765625 14.6875 -77.765625 C 17.125 -77.765625 19.125 -77.054688 20.6875 -75.640625 C 22.257812 -74.234375 23.046875 -72.378906 23.046875 -70.078125 C 23.046875 -67.898438 22.257812 -66.078125 20.6875 -64.609375 C 19.125 -63.140625 17.125 -62.40625 14.6875 -62.40625 Z M 14.6875 -62.40625 "/></g></g><g style="fill:#000000;fill-opacity:1;"><g transform="translate(1.669926, 298.69618)"><path style="stroke:none" d="M 35.71875 -39.984375 L 35.71875 -14.109375 C 35.71875 -11.285156 35.144531 -8.769531 34 -6.5625 C 32.863281 -4.351562 31.144531 -2.613281 28.84375 -1.34375 C 26.550781 -0.0820312 23.671875 0.546875 20.203125 0.546875 C 15.265625 0.546875 11.503906 -0.789062 8.921875 -3.46875 C 6.347656 -6.15625 5.0625 -9.738281 5.0625 -14.21875 L 5.0625 -39.984375 L 9.734375 -39.984375 L 9.734375 -14.078125 C 9.734375 -10.691406 10.628906 -8.078125 12.421875 -6.234375 C 14.222656 -4.390625 16.910156 -3.46875 20.484375 -3.46875 C 22.921875 -3.46875 24.921875 -3.910156 26.484375 -4.796875 C 28.046875 -5.679688 29.203125 -6.921875 29.953125 -8.515625 C 30.710938 -10.109375 31.09375 -11.957031 31.09375 -14.0625 L 31.09375 -39.984375 Z M 35.71875 -39.984375 "/></g></g><g style="fill:#000000;fill-opacity:1;"><g transform="translate(42.488447, 298.69618)"><path style="stroke:none" d="M 18.984375 -30.515625 C 22.535156 -30.515625 25.222656 -29.644531 27.046875 -27.90625 C 28.867188 -26.164062 29.78125 -23.375 29.78125 -19.53125 L 29.78125 0 L 25.296875 0 L 25.296875 -19.21875 C 25.296875 -21.71875 24.722656 -23.585938 23.578125 -24.828125 C 22.441406 -26.066406 20.695312 -26.6875 18.34375 -26.6875 C 15.03125 -26.6875 12.695312 -25.75 11.34375 -23.875 C 10 -22 9.328125 -19.273438 9.328125 -15.703125 L 9.328125 0 L 4.78125 0 L 4.78125 -29.96875 L 8.453125 -29.96875 L 9.140625 -25.65625 L 9.375 -25.65625 C 10.019531 -26.707031 10.832031 -27.59375 11.8125 -28.3125 C 12.800781 -29.03125 13.90625 -29.578125 15.125 -29.953125 C 16.34375 -30.328125 17.628906 -30.515625 18.984375 -30.515625 Z M 18.984375 -30.515625 "/></g></g><g style="fill:#000000;fill-opacity:1;"><g transform="translate(76.827403, 298.69618)"><path style="stroke:none" d="M 9.328125 -29.96875 L 9.328125 0 L 4.78125 0 L 4.78125 -29.96875 Z M 7.109375 -41.1875 C 7.859375 -41.1875 8.5 -40.941406 9.03125 -40.453125 C 9.570312 -39.972656 9.84375 -39.222656 9.84375 -38.203125 C 9.84375 -37.203125 9.570312 -36.453125 9.03125 -35.953125 C 8.5 -35.460938 7.859375 -35.21875 7.109375 -35.21875 C 6.328125 -35.21875 5.675781 -35.460938 5.15625 -35.953125 C 4.632812 -36.453125 4.375 -37.203125 4.375 -38.203125 C 4.375 -39.222656 4.632812 -39.972656 5.15625 -40.453125 C 5.675781 -40.941406 6.328125 -41.1875 7.109375 -41.1875 Z M 7.109375 -41.1875 "/></g></g><g style="fill:#000000;fill-opacity:1;"><g transform="translate(90.962149, 298.69618)"><path style="stroke:none" d="M 11.375 0 L 0 -29.96875 L 4.875 -29.96875 L 11.453125 -11.84375 C 11.910156 -10.601562 12.375 -9.234375 12.84375 -7.734375 C 13.320312 -6.242188 13.65625 -5.039062 13.84375 -4.125 L 14.03125 -4.125 C 14.25 -5.039062 14.613281 -6.25 15.125 -7.75 C 15.632812 -9.257812 16.097656 -10.625 16.515625 -11.84375 L 23.109375 -29.96875 L 27.96875 -29.96875 L 16.578125 0 Z M 11.375 0 "/></g></g><g style="fill:#000000;fill-opacity:1;"><g transform="translate(118.930901, 298.69618)"><path style="stroke:none" d="M 16.328125 -30.515625 C 18.878906 -30.515625 21.066406 -29.945312 22.890625 -28.8125 C 24.710938 -27.6875 26.101562 -26.109375 27.0625 -24.078125 C 28.03125 -22.046875 28.515625 -19.671875 28.515625 -16.953125 L 28.515625 -14.140625 L 7.828125 -14.140625 C 7.878906 -10.617188 8.75 -7.9375 10.4375 -6.09375 C 12.132812 -4.257812 14.523438 -3.34375 17.609375 -3.34375 C 19.503906 -3.34375 21.179688 -3.515625 22.640625 -3.859375 C 24.097656 -4.203125 25.613281 -4.710938 27.1875 -5.390625 L 27.1875 -1.390625 C 25.664062 -0.722656 24.160156 -0.234375 22.671875 0.078125 C 21.191406 0.390625 19.441406 0.546875 17.421875 0.546875 C 14.535156 0.546875 12.019531 -0.0390625 9.875 -1.21875 C 7.738281 -2.394531 6.078125 -4.117188 4.890625 -6.390625 C 3.710938 -8.671875 3.125 -11.460938 3.125 -14.765625 C 3.125 -17.992188 3.664062 -20.785156 4.75 -23.140625 C 5.832031 -25.503906 7.363281 -27.320312 9.34375 -28.59375 C 11.320312 -29.875 13.648438 -30.515625 16.328125 -30.515625 Z M 16.265625 -26.796875 C 13.847656 -26.796875 11.914062 -26.003906 10.46875 -24.421875 C 9.03125 -22.835938 8.175781 -20.625 7.90625 -17.78125 L 23.765625 -17.78125 C 23.742188 -19.5625 23.460938 -21.128906 22.921875 -22.484375 C 22.390625 -23.847656 21.578125 -24.90625 20.484375 -25.65625 C 19.390625 -26.414062 17.984375 -26.796875 16.265625 -26.796875 Z M 16.265625 -26.796875 "/></g></g><g style="fill:#000000;fill-opacity:1;"><g transform="translate(150.371825, 298.69618)"><path style="stroke:none" d="M 18.40625 -30.515625 C 19.007812 -30.515625 19.640625 -30.484375 20.296875 -30.421875 C 20.953125 -30.359375 21.535156 -30.269531 22.046875 -30.15625 L 21.46875 -25.953125 C 20.976562 -26.078125 20.429688 -26.175781 19.828125 -26.25 C 19.222656 -26.320312 18.65625 -26.359375 18.125 -26.359375 C 16.925781 -26.359375 15.789062 -26.113281 14.71875 -25.625 C 13.65625 -25.144531 12.722656 -24.453125 11.921875 -23.546875 C 11.117188 -22.648438 10.488281 -21.566406 10.03125 -20.296875 C 9.582031 -19.035156 9.359375 -17.628906 9.359375 -16.078125 L 9.359375 0 L 4.78125 0 L 4.78125 -29.96875 L 8.5625 -29.96875 L 9.046875 -24.453125 L 9.25 -24.453125 C 9.863281 -25.554688 10.609375 -26.566406 11.484375 -27.484375 C 12.359375 -28.410156 13.375 -29.144531 14.53125 -29.6875 C 15.6875 -30.238281 16.976562 -30.515625 18.40625 -30.515625 Z M 18.40625 -30.515625 "/></g></g><g style="fill:#000000;fill-opacity:1;"><g transform="translate(173.255349, 298.69618)"><path style="stroke:none" d="M 24.171875 -8.203125 C 24.171875 -6.285156 23.691406 -4.675781 22.734375 -3.375 C 21.773438 -2.070312 20.40625 -1.09375 18.625 -0.4375 C 16.851562 0.21875 14.738281 0.546875 12.28125 0.546875 C 10.1875 0.546875 8.375 0.378906 6.84375 0.046875 C 5.3125 -0.273438 3.96875 -0.738281 2.8125 -1.34375 L 2.8125 -5.53125 C 4.039062 -4.925781 5.5 -4.375 7.1875 -3.875 C 8.882812 -3.382812 10.617188 -3.140625 12.390625 -3.140625 C 14.972656 -3.140625 16.847656 -3.554688 18.015625 -4.390625 C 19.179688 -5.234375 19.765625 -6.378906 19.765625 -7.828125 C 19.765625 -8.640625 19.53125 -9.359375 19.0625 -9.984375 C 18.601562 -10.617188 17.828125 -11.234375 16.734375 -11.828125 C 15.640625 -12.421875 14.128906 -13.070312 12.203125 -13.78125 C 10.285156 -14.507812 8.628906 -15.234375 7.234375 -15.953125 C 5.835938 -16.671875 4.757812 -17.550781 4 -18.59375 C 3.25 -19.632812 2.875 -20.984375 2.875 -22.640625 C 2.875 -25.171875 3.898438 -27.113281 5.953125 -28.46875 C 8.003906 -29.832031 10.695312 -30.515625 14.03125 -30.515625 C 15.832031 -30.515625 17.519531 -30.335938 19.09375 -29.984375 C 20.675781 -29.628906 22.148438 -29.148438 23.515625 -28.546875 L 21.984375 -24.90625 C 20.742188 -25.4375 19.421875 -25.882812 18.015625 -26.25 C 16.617188 -26.613281 15.191406 -26.796875 13.734375 -26.796875 C 11.628906 -26.796875 10.015625 -26.445312 8.890625 -25.75 C 7.773438 -25.0625 7.21875 -24.117188 7.21875 -22.921875 C 7.21875 -21.984375 7.476562 -21.210938 8 -20.609375 C 8.519531 -20.015625 9.351562 -19.453125 10.5 -18.921875 C 11.644531 -18.390625 13.160156 -17.769531 15.046875 -17.0625 C 16.921875 -16.375 18.539062 -15.660156 19.90625 -14.921875 C 21.269531 -14.179688 22.320312 -13.285156 23.0625 -12.234375 C 23.800781 -11.191406 24.171875 -9.847656 24.171875 -8.203125 Z M 24.171875 -8.203125 "/></g></g><g style="fill:#000000;fill-opacity:1;"><g transform="translate(199.939124, 298.69618)"><path style="stroke:none" d="M 16 -30.46875 C 19.570312 -30.46875 22.222656 -29.664062 23.953125 -28.0625 C 25.679688 -26.457031 26.546875 -23.894531 26.546875 -20.375 L 26.546875 0 L 23.25 0 L 22.375 -4.4375 L 22.15625 -4.4375 C 21.3125 -3.34375 20.429688 -2.425781 19.515625 -1.6875 C 18.609375 -0.945312 17.554688 -0.390625 16.359375 -0.015625 C 15.171875 0.359375 13.710938 0.546875 11.984375 0.546875 C 10.160156 0.546875 8.539062 0.226562 7.125 -0.40625 C 5.707031 -1.050781 4.59375 -2.019531 3.78125 -3.3125 C 2.976562 -4.601562 2.578125 -6.242188 2.578125 -8.234375 C 2.578125 -11.222656 3.757812 -13.519531 6.125 -15.125 C 8.5 -16.726562 12.109375 -17.601562 16.953125 -17.75 L 22.125 -17.96875 L 22.125 -19.796875 C 22.125 -22.390625 21.566406 -24.203125 20.453125 -25.234375 C 19.335938 -26.273438 17.769531 -26.796875 15.75 -26.796875 C 14.1875 -26.796875 12.691406 -26.566406 11.265625 -26.109375 C 9.847656 -25.660156 8.5 -25.125 7.21875 -24.5 L 5.828125 -27.953125 C 7.171875 -28.640625 8.71875 -29.226562 10.46875 -29.71875 C 12.21875 -30.21875 14.0625 -30.46875 16 -30.46875 Z M 22.0625 -14.765625 L 17.5 -14.578125 C 13.757812 -14.429688 11.125 -13.816406 9.59375 -12.734375 C 8.0625 -11.660156 7.296875 -10.140625 7.296875 -8.171875 C 7.296875 -6.460938 7.816406 -5.195312 8.859375 -4.375 C 9.898438 -3.550781 11.273438 -3.140625 12.984375 -3.140625 C 15.648438 -3.140625 17.828125 -3.878906 19.515625 -5.359375 C 21.210938 -6.835938 22.0625 -9.050781 22.0625 -12 Z M 22.0625 -14.765625 "/></g></g><g style="fill:#000000;fill-opacity:1;"><g transform="translate(231.051968, 298.69618)"><path style="stroke:none" d="M 9.359375 0 L 4.78125 0 L 4.78125 -42.546875 L 9.359375 -42.546875 Z M 9.359375 0 "/></g></g><g style="fill:#000000;fill-opacity:1;"><g transform="translate(245.186726, 298.69618)"><path style="stroke:none" d=""/></g></g><g style="fill:#000000;fill-opacity:1;"><g transform="translate(259.73157, 298.69618)"><path style="stroke:none" d="M 15.921875 -39.984375 C 21.078125 -39.984375 24.84375 -38.972656 27.21875 -36.953125 C 29.601562 -34.941406 30.796875 -32.054688 30.796875 -28.296875 C 30.796875 -26.609375 30.515625 -25 29.953125 -23.46875 C 29.398438 -21.945312 28.503906 -20.609375 27.265625 -19.453125 C 26.023438 -18.296875 24.394531 -17.382812 22.375 -16.71875 C 20.363281 -16.050781 17.898438 -15.71875 14.984375 -15.71875 L 10.125 -15.71875 L 10.125 0 L 5.46875 0 L 5.46875 -39.984375 Z M 15.484375 -36.015625 L 10.125 -36.015625 L 10.125 -19.71875 L 14.46875 -19.71875 C 17.019531 -19.71875 19.144531 -19.988281 20.84375 -20.53125 C 22.550781 -21.082031 23.832031 -21.972656 24.6875 -23.203125 C 25.550781 -24.429688 25.984375 -26.066406 25.984375 -28.109375 C 25.984375 -30.773438 25.132812 -32.757812 23.4375 -34.0625 C 21.738281 -35.363281 19.085938 -36.015625 15.484375 -36.015625 Z M 15.484375 -36.015625 "/></g></g><g style="fill:#000000;fill-opacity:1;"><g transform="translate(293.414368, 298.69618)"><path style="stroke:none" d="M 9.328125 -29.96875 L 9.328125 0 L 4.78125 0 L 4.78125 -29.96875 Z M 7.109375 -41.1875 C 7.859375 -41.1875 8.5 -40.941406 9.03125 -40.453125 C 9.570312 -39.972656 9.84375 -39.222656 9.84375 -38.203125 C 9.84375 -37.203125 9.570312 -36.453125 9.03125 -35.953125 C 8.5 -35.460938 7.859375 -35.21875 7.109375 -35.21875 C 6.328125 -35.21875 5.675781 -35.460938 5.15625 -35.953125 C 4.632812 -36.453125 4.375 -37.203125 4.375 -38.203125 C 4.375 -39.222656 4.632812 -39.972656 5.15625 -40.453125 C 5.675781 -40.941406 6.328125 -41.1875 7.109375 -41.1875 Z M 7.109375 -41.1875 "/></g></g><g style="fill:#000000;fill-opacity:1;"><g transform="translate(307.549101, 298.69618)"><path style="stroke:none" d="M 18.984375 -30.515625 C 22.535156 -30.515625 25.222656 -29.644531 27.046875 -27.90625 C 28.867188 -26.164062 29.78125 -23.375 29.78125 -19.53125 L 29.78125 0 L 25.296875 0 L 25.296875 -19.21875 C 25.296875 -21.71875 24.722656 -23.585938 23.578125 -24.828125 C 22.441406 -26.066406 20.695312 -26.6875 18.34375 -26.6875 C 15.03125 -26.6875 12.695312 -25.75 11.34375 -23.875 C 10 -22 9.328125 -19.273438 9.328125 -15.703125 L 9.328125 0 L 4.78125 0 L 4.78125 -29.96875 L 8.453125 -29.96875 L 9.140625 -25.65625 L 9.375 -25.65625 C 10.019531 -26.707031 10.832031 -27.59375 11.8125 -28.3125 C 12.800781 -29.03125 13.90625 -29.578125 15.125 -29.953125 C 16.34375 -30.328125 17.628906 -30.515625 18.984375 -30.515625 Z M 18.984375 -30.515625 "/></g></g><g style="fill:#000000;fill-opacity:1;"><g transform="translate(341.888058, 298.69618)"><path style="stroke:none" d="M 16.328125 -30.515625 C 18.878906 -30.515625 21.066406 -29.945312 22.890625 -28.8125 C 24.710938 -27.6875 26.101562 -26.109375 27.0625 -24.078125 C 28.03125 -22.046875 28.515625 -19.671875 28.515625 -16.953125 L 28.515625 -14.140625 L 7.828125 -14.140625 C 7.878906 -10.617188 8.75 -7.9375 10.4375 -6.09375 C 12.132812 -4.257812 14.523438 -3.34375 17.609375 -3.34375 C 19.503906 -3.34375 21.179688 -3.515625 22.640625 -3.859375 C 24.097656 -4.203125 25.613281 -4.710938 27.1875 -5.390625 L 27.1875 -1.390625 C 25.664062 -0.722656 24.160156 -0.234375 22.671875 0.078125 C 21.191406 0.390625 19.441406 0.546875 17.421875 0.546875 C 14.535156 0.546875 12.019531 -0.0390625 9.875 -1.21875 C 7.738281 -2.394531 6.078125 -4.117188 4.890625 -6.390625 C 3.710938 -8.671875 3.125 -11.460938 3.125 -14.765625 C 3.125 -17.992188 3.664062 -20.785156 4.75 -23.140625 C 5.832031 -25.503906 7.363281 -27.320312 9.34375 -28.59375 C 11.320312 -29.875 13.648438 -30.515625 16.328125 -30.515625 Z M 16.265625 -26.796875 C 13.847656 -26.796875 11.914062 -26.003906 10.46875 -24.421875 C 9.03125 -22.835938 8.175781 -20.625 7.90625 -17.78125 L 23.765625 -17.78125 C 23.742188 -19.5625 23.460938 -21.128906 22.921875 -22.484375 C 22.390625 -23.847656 21.578125 -24.90625 20.484375 -25.65625 C 19.390625 -26.414062 17.984375 -26.796875 16.265625 -26.796875 Z M 16.265625 -26.796875 "/></g></g></g></svg>