<svg xmlns="http://www.w3.org/2000/svg" xmlns:xlink="http://www.w3.org/1999/xlink" width="500" zoomAndPan="magnify" viewBox="0 0 375 374.999991" height="500" preserveAspectRatio="xMidYMid meet" version="1.2"><defs><clipPath id="22925db63d"><path d="M 93.652344 65.578125 L 281.152344 65.578125 L 281.152344 253.078125 L 93.652344 253.078125 Z M 93.652344 65.578125 "/></clipPath><clipPath id="148f84e4bf"><path d="M 177.964844 96.835938 L 196.84375 96.835938 L 196.84375 159.328125 L 177.964844 159.328125 Z M 177.964844 96.835938 "/></clipPath><clipPath id="87a833e991"><path d="M 128.152344 148.078125 L 197 148.078125 L 197 199.078125 L 128.152344 199.078125 Z M 128.152344 148.078125 "/></clipPath><clipPath id="0a9a06c017"><path d="M 187.320312 148.441406 L 196.820312 164.757812 L 137.972656 199.035156 L 128.46875 182.71875 Z M 187.320312 148.441406 "/></clipPath><clipPath id="3e7e2a2205"><path d="M 177.652344 148.078125 L 246.652344 148.078125 L 246.652344 199.078125 L 177.652344 199.078125 Z M 177.652344 148.078125 "/></clipPath><clipPath id="4c82a43f0a"><path d="M 177.964844 164.746094 L 187.484375 148.441406 L 246.210938 182.726562 L 236.691406 199.03125 Z M 177.964844 164.746094 "/></clipPath></defs><g id="7ddae19fde"><g clip-rule="nonzero" clip-path="url(#22925db63d)"><path style=" stroke:none;fill-rule:nonzero;fill:#000000;fill-opacity:1;" d="M 187.402344 65.578125 C 135.625 65.578125 93.652344 107.550781 93.652344 159.328125 C 93.652344 211.105469 135.625 253.078125 187.402344 253.078125 C 239.179688 253.078125 281.152344 211.105469 281.152344 159.328125 C 281.152344 107.550781 239.179688 65.578125 187.402344 65.578125 Z M 187.402344 234.328125 C 145.984375 234.328125 112.402344 200.746094 112.402344 159.328125 C 112.402344 117.910156 145.984375 84.328125 187.402344 84.328125 C 228.820312 84.328125 262.402344 117.910156 262.402344 159.328125 C 262.402344 200.746094 228.820312 234.328125 187.402344 234.328125 Z M 187.402344 234.328125 "/></g><g clip-rule="nonzero" clip-path="url(#148f84e4bf)"><path style=" stroke:none;fill-rule:nonzero;fill:#000000;fill-opacity:1;" d="M 177.964844 96.835938 L 196.84375 96.835938 L 196.84375 159.304688 L 177.964844 159.304688 Z M 177.964844 96.835938 "/></g><g clip-rule="nonzero" clip-path="url(#87a833e991)"><g clip-rule="nonzero" clip-path="url(#0a9a06c017)"><path style=" stroke:none;fill-rule:nonzero;fill:#000000;fill-opacity:1;" d="M 187.320312 148.441406 L 196.820312 164.757812 L 138 199.019531 L 128.496094 182.703125 Z M 187.320312 148.441406 "/></g></g><g clip-rule="nonzero" clip-path="url(#3e7e2a2205)"><g clip-rule="nonzero" clip-path="url(#4c82a43f0a)"><path style=" stroke:none;fill-rule:nonzero;fill:#000000;fill-opacity:1;" d="M 177.964844 164.746094 L 187.484375 148.441406 L 246.207031 182.726562 L 236.6875 199.03125 Z M 177.964844 164.746094 "/></g></g><g style="fill:#000000;fill-opacity:1;"><g transform="translate(0.151594, 308.233103)"><path style="stroke:none" d="M 35.015625 -37.265625 L 35.015625 -13.15625 C 35.015625 -10.582031 34.453125 -8.265625 33.328125 -6.203125 C 32.203125 -4.140625 30.492188 -2.503906 28.203125 -1.296875 C 25.921875 -0.0859375 23.046875 0.515625 19.578125 0.515625 C 14.648438 0.515625 10.894531 -0.738281 8.3125 -3.25 C 5.726562 -5.769531 4.4375 -9.101562 4.4375 -13.25 L 4.4375 -37.265625 L 12.3125 -37.265625 L 12.3125 -14.453125 C 12.3125 -11.378906 12.9375 -9.222656 14.1875 -7.984375 C 15.445312 -6.742188 17.3125 -6.125 19.78125 -6.125 C 21.507812 -6.125 22.914062 -6.421875 24 -7.015625 C 25.082031 -7.609375 25.875 -8.523438 26.375 -9.765625 C 26.882812 -11.003906 27.140625 -12.582031 27.140625 -14.5 L 27.140625 -37.265625 Z M 35.015625 -37.265625 "/></g></g><g style="fill:#000000;fill-opacity:1;"><g transform="translate(39.600075, 308.233103)"><path style="stroke:none" d="M 20.265625 -29.03125 C 23.304688 -29.03125 25.753906 -28.203125 27.609375 -26.546875 C 29.460938 -24.890625 30.390625 -22.234375 30.390625 -18.578125 L 30.390625 0 L 22.609375 0 L 22.609375 -16.640625 C 22.609375 -18.679688 22.238281 -20.21875 21.5 -21.25 C 20.757812 -22.289062 19.597656 -22.8125 18.015625 -22.8125 C 15.640625 -22.8125 14.019531 -22.003906 13.15625 -20.390625 C 12.289062 -18.773438 11.859375 -16.445312 11.859375 -13.40625 L 11.859375 0 L 4.078125 0 L 4.078125 -28.5 L 10.015625 -28.5 L 11.0625 -24.859375 L 11.5 -24.859375 C 12.101562 -25.835938 12.859375 -26.632812 13.765625 -27.25 C 14.679688 -27.863281 15.695312 -28.3125 16.8125 -28.59375 C 17.925781 -28.882812 19.078125 -29.03125 20.265625 -29.03125 Z M 20.265625 -29.03125 "/></g></g><g style="fill:#000000;fill-opacity:1;"><g transform="translate(73.900885, 308.233103)"><path style="stroke:none" d="M 11.859375 -28.5 L 11.859375 0 L 4.078125 0 L 4.078125 -28.5 Z M 7.984375 -39.65625 C 9.140625 -39.65625 10.128906 -39.390625 10.953125 -38.859375 C 11.785156 -38.328125 12.203125 -37.328125 12.203125 -35.859375 C 12.203125 -34.421875 11.785156 -33.425781 10.953125 -32.875 C 10.128906 -32.320312 9.140625 -32.046875 7.984375 -32.046875 C 6.804688 -32.046875 5.804688 -32.320312 4.984375 -32.875 C 4.160156 -33.425781 3.75 -34.421875 3.75 -35.859375 C 3.75 -37.328125 4.160156 -38.328125 4.984375 -38.859375 C 5.804688 -39.390625 6.804688 -39.65625 7.984375 -39.65625 Z M 7.984375 -39.65625 "/></g></g><g style="fill:#000000;fill-opacity:1;"><g transform="translate(89.828082, 308.233103)"><path style="stroke:none" d="M 10.859375 0 L 0 -28.5 L 8.125 -28.5 L 13.640625 -12.265625 C 13.941406 -11.304688 14.179688 -10.300781 14.359375 -9.25 C 14.535156 -8.195312 14.660156 -7.253906 14.734375 -6.421875 L 14.9375 -6.421875 C 14.988281 -7.328125 15.109375 -8.285156 15.296875 -9.296875 C 15.492188 -10.316406 15.753906 -11.304688 16.078125 -12.265625 L 21.5625 -28.5 L 29.703125 -28.5 L 18.84375 0 Z M 10.859375 0 "/></g></g><g style="fill:#000000;fill-opacity:1;"><g transform="translate(119.516376, 308.233103)"><path style="stroke:none" d="M 15.828125 -29.03125 C 18.460938 -29.03125 20.726562 -28.523438 22.625 -27.515625 C 24.53125 -26.503906 26 -25.035156 27.03125 -23.109375 C 28.070312 -21.191406 28.59375 -18.847656 28.59375 -16.078125 L 28.59375 -12.3125 L 10.21875 -12.3125 C 10.300781 -10.113281 10.957031 -8.390625 12.1875 -7.140625 C 13.425781 -5.898438 15.140625 -5.28125 17.328125 -5.28125 C 19.148438 -5.28125 20.816406 -5.460938 22.328125 -5.828125 C 23.835938 -6.203125 25.394531 -6.765625 27 -7.515625 L 27 -1.5 C 25.582031 -0.800781 24.101562 -0.289062 22.5625 0.03125 C 21.03125 0.351562 19.164062 0.515625 16.96875 0.515625 C 14.113281 0.515625 11.585938 -0.0078125 9.390625 -1.0625 C 7.191406 -2.125 5.46875 -3.734375 4.21875 -5.890625 C 2.96875 -8.046875 2.34375 -10.765625 2.34375 -14.046875 C 2.34375 -17.378906 2.90625 -20.148438 4.03125 -22.359375 C 5.164062 -24.578125 6.742188 -26.242188 8.765625 -27.359375 C 10.785156 -28.472656 13.140625 -29.03125 15.828125 -29.03125 Z M 15.875 -23.5 C 14.363281 -23.5 13.109375 -23.015625 12.109375 -22.046875 C 11.117188 -21.078125 10.550781 -19.554688 10.40625 -17.484375 L 21.3125 -17.484375 C 21.289062 -18.640625 21.082031 -19.664062 20.6875 -20.5625 C 20.289062 -21.46875 19.695312 -22.179688 18.90625 -22.703125 C 18.113281 -23.234375 17.101562 -23.5 15.875 -23.5 Z M 15.875 -23.5 "/></g></g><g style="fill:#000000;fill-opacity:1;"><g transform="translate(150.351429, 308.233103)"><path style="stroke:none" d="M 19.984375 -29.03125 C 20.367188 -29.03125 20.820312 -29.007812 21.34375 -28.96875 C 21.863281 -28.925781 22.285156 -28.867188 22.609375 -28.796875 L 22.015625 -21.515625 C 21.765625 -21.597656 21.40625 -21.660156 20.9375 -21.703125 C 20.46875 -21.742188 20.066406 -21.765625 19.734375 -21.765625 C 18.722656 -21.765625 17.742188 -21.632812 16.796875 -21.375 C 15.859375 -21.125 15.015625 -20.710938 14.265625 -20.140625 C 13.523438 -19.578125 12.9375 -18.832031 12.5 -17.90625 C 12.070312 -16.976562 11.859375 -15.84375 11.859375 -14.5 L 11.859375 0 L 4.078125 0 L 4.078125 -28.5 L 9.96875 -28.5 L 11.109375 -23.703125 L 11.5 -23.703125 C 12.0625 -24.671875 12.757812 -25.554688 13.59375 -26.359375 C 14.4375 -27.171875 15.394531 -27.816406 16.46875 -28.296875 C 17.550781 -28.785156 18.722656 -29.03125 19.984375 -29.03125 Z M 19.984375 -29.03125 "/></g></g><g style="fill:#000000;fill-opacity:1;"><g transform="translate(174.051097, 308.233103)"><path style="stroke:none" d="M 23.953125 -8.46875 C 23.953125 -6.53125 23.5 -4.894531 22.59375 -3.5625 C 21.6875 -2.226562 20.332031 -1.210938 18.53125 -0.515625 C 16.726562 0.171875 14.484375 0.515625 11.796875 0.515625 C 9.804688 0.515625 8.101562 0.382812 6.6875 0.125 C 5.269531 -0.125 3.835938 -0.546875 2.390625 -1.140625 L 2.390625 -7.578125 C 3.941406 -6.878906 5.601562 -6.300781 7.375 -5.84375 C 9.15625 -5.394531 10.71875 -5.171875 12.0625 -5.171875 C 13.570312 -5.171875 14.648438 -5.394531 15.296875 -5.84375 C 15.953125 -6.300781 16.28125 -6.894531 16.28125 -7.625 C 16.28125 -8.09375 16.148438 -8.519531 15.890625 -8.90625 C 15.628906 -9.289062 15.0625 -9.722656 14.1875 -10.203125 C 13.320312 -10.691406 11.96875 -11.328125 10.125 -12.109375 C 8.332031 -12.859375 6.863281 -13.613281 5.71875 -14.375 C 4.570312 -15.132812 3.722656 -16.035156 3.171875 -17.078125 C 2.617188 -18.128906 2.34375 -19.460938 2.34375 -21.078125 C 2.34375 -23.710938 3.363281 -25.695312 5.40625 -27.03125 C 7.457031 -28.363281 10.203125 -29.03125 13.640625 -29.03125 C 15.398438 -29.03125 17.082031 -28.851562 18.6875 -28.5 C 20.300781 -28.144531 21.957031 -27.578125 23.65625 -26.796875 L 21.3125 -21.1875 C 19.894531 -21.789062 18.5625 -22.285156 17.3125 -22.671875 C 16.070312 -23.066406 14.804688 -23.265625 13.515625 -23.265625 C 12.367188 -23.265625 11.503906 -23.113281 10.921875 -22.8125 C 10.347656 -22.507812 10.0625 -22.039062 10.0625 -21.40625 C 10.0625 -20.945312 10.207031 -20.539062 10.5 -20.1875 C 10.800781 -19.832031 11.378906 -19.4375 12.234375 -19 C 13.097656 -18.570312 14.363281 -18.015625 16.03125 -17.328125 C 17.644531 -16.671875 19.046875 -15.976562 20.234375 -15.25 C 21.421875 -14.53125 22.335938 -13.640625 22.984375 -12.578125 C 23.628906 -11.515625 23.953125 -10.144531 23.953125 -8.46875 Z M 23.953125 -8.46875 "/></g></g><g style="fill:#000000;fill-opacity:1;"><g transform="translate(199.993315, 308.233103)"><path style="stroke:none" d="M 15.75 -29.078125 C 19.570312 -29.078125 22.503906 -28.242188 24.546875 -26.578125 C 26.585938 -24.921875 27.609375 -22.390625 27.609375 -18.984375 L 27.609375 0 L 22.171875 0 L 20.671875 -3.875 L 20.46875 -3.875 C 19.65625 -2.851562 18.820312 -2.019531 17.96875 -1.375 C 17.125 -0.726562 16.144531 -0.253906 15.03125 0.046875 C 13.925781 0.359375 12.585938 0.515625 11.015625 0.515625 C 9.328125 0.515625 7.816406 0.191406 6.484375 -0.453125 C 5.148438 -1.097656 4.097656 -2.085938 3.328125 -3.421875 C 2.566406 -4.753906 2.1875 -6.453125 2.1875 -8.515625 C 2.1875 -11.535156 3.25 -13.765625 5.375 -15.203125 C 7.5 -16.640625 10.6875 -17.4375 14.9375 -17.59375 L 19.875 -17.734375 L 19.875 -18.984375 C 19.875 -20.484375 19.484375 -21.582031 18.703125 -22.28125 C 17.921875 -22.976562 16.835938 -23.328125 15.453125 -23.328125 C 14.066406 -23.328125 12.710938 -23.128906 11.390625 -22.734375 C 10.066406 -22.347656 8.742188 -21.859375 7.421875 -21.265625 L 4.84375 -26.515625 C 6.351562 -27.304688 8.046875 -27.929688 9.921875 -28.390625 C 11.804688 -28.847656 13.75 -29.078125 15.75 -29.078125 Z M 19.875 -13.203125 L 16.875 -13.109375 C 14.363281 -13.035156 12.617188 -12.582031 11.640625 -11.75 C 10.660156 -10.914062 10.171875 -9.820312 10.171875 -8.46875 C 10.171875 -7.269531 10.519531 -6.421875 11.21875 -5.921875 C 11.914062 -5.421875 12.820312 -5.171875 13.9375 -5.171875 C 15.601562 -5.171875 17.007812 -5.660156 18.15625 -6.640625 C 19.300781 -7.628906 19.875 -9.035156 19.875 -10.859375 Z M 19.875 -13.203125 "/></g></g><g style="fill:#000000;fill-opacity:1;"><g transform="translate(231.516423, 308.233103)"><path style="stroke:none" d="M 11.859375 0 L 4.078125 0 L 4.078125 -39.65625 L 11.859375 -39.65625 Z M 11.859375 0 "/></g></g><g style="fill:#000000;fill-opacity:1;"><g transform="translate(247.443619, 308.233103)"><path style="stroke:none" d=""/></g></g><g style="fill:#000000;fill-opacity:1;"><g transform="translate(261.000849, 308.233103)"><path style="stroke:none" d="M 16.59375 -37.265625 C 21.40625 -37.265625 24.914062 -36.234375 27.125 -34.171875 C 29.332031 -32.109375 30.4375 -29.265625 30.4375 -25.640625 C 30.4375 -24.015625 30.1875 -22.457031 29.6875 -20.96875 C 29.195312 -19.476562 28.394531 -18.15625 27.28125 -17 C 26.175781 -15.84375 24.695312 -14.925781 22.84375 -14.25 C 20.988281 -13.582031 18.703125 -13.25 15.984375 -13.25 L 12.59375 -13.25 L 12.59375 0 L 4.6875 0 L 4.6875 -37.265625 Z M 16.1875 -30.796875 L 12.59375 -30.796875 L 12.59375 -19.734375 L 15.1875 -19.734375 C 16.664062 -19.734375 17.945312 -19.925781 19.03125 -20.3125 C 20.125 -20.707031 20.96875 -21.320312 21.5625 -22.15625 C 22.15625 -22.988281 22.453125 -24.054688 22.453125 -25.359375 C 22.453125 -27.191406 21.941406 -28.554688 20.921875 -29.453125 C 19.898438 -30.347656 18.320312 -30.796875 16.1875 -30.796875 Z M 16.1875 -30.796875 "/></g></g><g style="fill:#000000;fill-opacity:1;"><g transform="translate(293.772649, 308.233103)"><path style="stroke:none" d="M 11.859375 -28.5 L 11.859375 0 L 4.078125 0 L 4.078125 -28.5 Z M 7.984375 -39.65625 C 9.140625 -39.65625 10.128906 -39.390625 10.953125 -38.859375 C 11.785156 -38.328125 12.203125 -37.328125 12.203125 -35.859375 C 12.203125 -34.421875 11.785156 -33.425781 10.953125 -32.875 C 10.128906 -32.320312 9.140625 -32.046875 7.984375 -32.046875 C 6.804688 -32.046875 5.804688 -32.320312 4.984375 -32.875 C 4.160156 -33.425781 3.75 -34.421875 3.75 -35.859375 C 3.75 -37.328125 4.160156 -38.328125 4.984375 -38.859375 C 5.804688 -39.390625 6.804688 -39.65625 7.984375 -39.65625 Z M 7.984375 -39.65625 "/></g></g><g style="fill:#000000;fill-opacity:1;"><g transform="translate(309.699846, 308.233103)"><path style="stroke:none" d="M 20.265625 -29.03125 C 23.304688 -29.03125 25.753906 -28.203125 27.609375 -26.546875 C 29.460938 -24.890625 30.390625 -22.234375 30.390625 -18.578125 L 30.390625 0 L 22.609375 0 L 22.609375 -16.640625 C 22.609375 -18.679688 22.238281 -20.21875 21.5 -21.25 C 20.757812 -22.289062 19.597656 -22.8125 18.015625 -22.8125 C 15.640625 -22.8125 14.019531 -22.003906 13.15625 -20.390625 C 12.289062 -18.773438 11.859375 -16.445312 11.859375 -13.40625 L 11.859375 0 L 4.078125 0 L 4.078125 -28.5 L 10.015625 -28.5 L 11.0625 -24.859375 L 11.5 -24.859375 C 12.101562 -25.835938 12.859375 -26.632812 13.765625 -27.25 C 14.679688 -27.863281 15.695312 -28.3125 16.8125 -28.59375 C 17.925781 -28.882812 19.078125 -29.03125 20.265625 -29.03125 Z M 20.265625 -29.03125 "/></g></g><g style="fill:#000000;fill-opacity:1;"><g transform="translate(344.000656, 308.233103)"><path style="stroke:none" d="M 15.828125 -29.03125 C 18.460938 -29.03125 20.726562 -28.523438 22.625 -27.515625 C 24.53125 -26.503906 26 -25.035156 27.03125 -23.109375 C 28.070312 -21.191406 28.59375 -18.847656 28.59375 -16.078125 L 28.59375 -12.3125 L 10.21875 -12.3125 C 10.300781 -10.113281 10.957031 -8.390625 12.1875 -7.140625 C 13.425781 -5.898438 15.140625 -5.28125 17.328125 -5.28125 C 19.148438 -5.28125 20.816406 -5.460938 22.328125 -5.828125 C 23.835938 -6.203125 25.394531 -6.765625 27 -7.515625 L 27 -1.5 C 25.582031 -0.800781 24.101562 -0.289062 22.5625 0.03125 C 21.03125 0.351562 19.164062 0.515625 16.96875 0.515625 C 14.113281 0.515625 11.585938 -0.0078125 9.390625 -1.0625 C 7.191406 -2.125 5.46875 -3.734375 4.21875 -5.890625 C 2.96875 -8.046875 2.34375 -10.765625 2.34375 -14.046875 C 2.34375 -17.378906 2.90625 -20.148438 4.03125 -22.359375 C 5.164062 -24.578125 6.742188 -26.242188 8.765625 -27.359375 C 10.785156 -28.472656 13.140625 -29.03125 15.828125 -29.03125 Z M 15.875 -23.5 C 14.363281 -23.5 13.109375 -23.015625 12.109375 -22.046875 C 11.117188 -21.078125 10.550781 -19.554688 10.40625 -17.484375 L 21.3125 -17.484375 C 21.289062 -18.640625 21.082031 -19.664062 20.6875 -20.5625 C 20.289062 -21.46875 19.695312 -22.179688 18.90625 -22.703125 C 18.113281 -23.234375 17.101562 -23.5 15.875 -23.5 Z M 15.875 -23.5 "/></g></g></g></svg>