<svg xmlns="http://www.w3.org/2000/svg" xmlns:xlink="http://www.w3.org/1999/xlink" width="500" zoomAndPan="magnify" viewBox="0 0 375 374.999991" height="500" preserveAspectRatio="xMidYMid meet" version="1.2"><defs><clipPath id="20226c2060"><path d="M 112.5 75.171875 L 262.5 75.171875 L 262.5 225.171875 L 112.5 225.171875 Z M 112.5 75.171875 "/></clipPath><clipPath id="47d0602a69"><path d="M 187.5 75.171875 C 146.078125 75.171875 112.5 108.753906 112.5 150.171875 C 112.5 191.59375 146.078125 225.171875 187.5 225.171875 C 228.921875 225.171875 262.5 191.59375 262.5 150.171875 C 262.5 108.753906 228.921875 75.171875 187.5 75.171875 Z M 187.5 75.171875 "/></clipPath></defs><g id="6294459455"><g clip-rule="nonzero" clip-path="url(#20226c2060)"><g clip-rule="nonzero" clip-path="url(#47d0602a69)"><path style=" stroke:none;fill-rule:nonzero;fill:#33cc33;fill-opacity:1;" d="M 112.5 75.171875 L 262.5 75.171875 L 262.5 225.171875 L 112.5 225.171875 Z M 112.5 75.171875 "/></g></g><g style="fill:#ffffff;fill-opacity:1;"><g transform="translate(202.092764, 190.298719)"><path style="stroke:none" d="M 7.578125 0 L 7.578125 -53.765625 L 21.59375 -53.765625 L 21.59375 0 Z M 14.6875 -62.40625 C 12.257812 -62.40625 10.242188 -63.140625 8.640625 -64.609375 C 7.035156 -66.078125 6.234375 -67.898438 6.234375 -70.078125 C 6.234375 -72.378906 7.035156 -74.234375 8.640625 -75.640625 C 10.242188 -77.054688 12.257812 -77.765625 14.6875 -77.765625 C 17.125 -77.765625 19.125 -77.054688 20.6875 -75.640625 C 22.257812 -74.234375 23.046875 -72.378906 23.046875 -70.078125 C 23.046875 -67.898438 22.257812 -66.078125 20.6875 -64.609375 C 19.125 -63.140625 17.125 -62.40625 14.6875 -62.40625 Z M 14.6875 -62.40625 "/></g></g><g style="fill:#ffffff;fill-opacity:1;"><g transform="translate(143.721674, 190.298719)"><path style="stroke:none" d="M 7.578125 0 L 7.578125 -53.765625 L 21.59375 -53.765625 L 21.59375 0 Z M 14.6875 -62.40625 C 12.257812 -62.40625 10.242188 -63.140625 8.640625 -64.609375 C 7.035156 -66.078125 6.234375 -67.898438 6.234375 -70.078125 C 6.234375 -72.378906 7.035156 -74.234375 8.640625 -75.640625 C 10.242188 -77.054688 12.257812 -77.765625 14.6875 -77.765625 C 17.125 -77.765625 19.125 -77.054688 20.6875 -75.640625 C 22.257812 -74.234375 23.046875 -72.378906 23.046875 -70.078125 C 23.046875 -67.898438 22.257812 -66.078125 20.6875 -64.609375 C 19.125 -63.140625 17.125 -62.40625 14.6875 -62.40625 Z M 14.6875 -62.40625 "/></g></g><g style="fill:#ffffff;fill-opacity:1;"><g transform="translate(172.90722, 190.298719)"><path style="stroke:none" d="M 7.578125 0 L 7.578125 -53.765625 L 21.59375 -53.765625 L 21.59375 0 Z M 14.6875 -62.40625 C 12.257812 -62.40625 10.242188 -63.140625 8.640625 -64.609375 C 7.035156 -66.078125 6.234375 -67.898438 6.234375 -70.078125 C 6.234375 -72.378906 7.035156 -74.234375 8.640625 -75.640625 C 10.242188 -77.054688 12.257812 -77.765625 14.6875 -77.765625 C 17.125 -77.765625 19.125 -77.054688 20.6875 -75.640625 C 22.257812 -74.234375 23.046875 -72.378906 23.046875 -70.078125 C 23.046875 -67.898438 22.257812 -66.078125 20.6875 -64.609375 C 19.125 -63.140625 17.125 -62.40625 14.6875 -62.40625 Z M 14.6875 -62.40625 "/></g></g><g style="fill:#000000;fill-opacity:1;"><g transform="translate(0.849614, 298.973169)"><path style="stroke:none" d="M 34.890625 -37.125 L 34.890625 -13.109375 C 34.890625 -10.546875 34.328125 -8.234375 33.203125 -6.171875 C 32.078125 -4.117188 30.375 -2.488281 28.09375 -1.28125 C 25.820312 -0.0820312 22.957031 0.515625 19.5 0.515625 C 14.59375 0.515625 10.851562 -0.738281 8.28125 -3.25 C 5.707031 -5.757812 4.421875 -9.078125 4.421875 -13.203125 L 4.421875 -37.125 L 12.265625 -37.125 L 12.265625 -14.390625 C 12.265625 -11.328125 12.890625 -9.175781 14.140625 -7.9375 C 15.390625 -6.707031 17.242188 -6.09375 19.703125 -6.09375 C 21.429688 -6.09375 22.832031 -6.390625 23.90625 -6.984375 C 24.976562 -7.578125 25.769531 -8.488281 26.28125 -9.71875 C 26.789062 -10.957031 27.046875 -12.535156 27.046875 -14.453125 L 27.046875 -37.125 Z M 34.890625 -37.125 "/></g></g><g style="fill:#000000;fill-opacity:1;"><g transform="translate(40.151346, 298.973169)"><path style="stroke:none" d="M 20.1875 -28.921875 C 23.21875 -28.921875 25.65625 -28.09375 27.5 -26.4375 C 29.34375 -24.789062 30.265625 -22.148438 30.265625 -18.515625 L 30.265625 0 L 22.515625 0 L 22.515625 -16.578125 C 22.515625 -18.609375 22.144531 -20.140625 21.40625 -21.171875 C 20.675781 -22.203125 19.523438 -22.71875 17.953125 -22.71875 C 15.578125 -22.71875 13.957031 -21.914062 13.09375 -20.3125 C 12.238281 -18.707031 11.8125 -16.390625 11.8125 -13.359375 L 11.8125 0 L 4.0625 0 L 4.0625 -28.390625 L 9.984375 -28.390625 L 11.015625 -24.75 L 11.453125 -24.75 C 12.054688 -25.738281 12.8125 -26.535156 13.71875 -27.140625 C 14.625 -27.753906 15.628906 -28.203125 16.734375 -28.484375 C 17.847656 -28.773438 19 -28.921875 20.1875 -28.921875 Z M 20.1875 -28.921875 "/></g></g><g style="fill:#000000;fill-opacity:1;"><g transform="translate(74.324558, 298.973169)"><path style="stroke:none" d="M 11.8125 -28.390625 L 11.8125 0 L 4.0625 0 L 4.0625 -28.390625 Z M 7.953125 -39.515625 C 9.097656 -39.515625 10.082031 -39.242188 10.90625 -38.703125 C 11.738281 -38.171875 12.15625 -37.175781 12.15625 -35.71875 C 12.15625 -34.28125 11.738281 -33.285156 10.90625 -32.734375 C 10.082031 -32.191406 9.097656 -31.921875 7.953125 -31.921875 C 6.785156 -31.921875 5.789062 -32.191406 4.96875 -32.734375 C 4.144531 -33.285156 3.734375 -34.28125 3.734375 -35.71875 C 3.734375 -37.175781 4.144531 -38.171875 4.96875 -38.703125 C 5.789062 -39.242188 6.785156 -39.515625 7.953125 -39.515625 Z M 7.953125 -39.515625 "/></g></g><g style="fill:#000000;fill-opacity:1;"><g transform="translate(90.19251, 298.973169)"><path style="stroke:none" d="M 10.8125 0 L 0 -28.390625 L 8.09375 -28.390625 L 13.578125 -12.21875 C 13.890625 -11.269531 14.132812 -10.269531 14.3125 -9.21875 C 14.488281 -8.164062 14.609375 -7.226562 14.671875 -6.40625 L 14.875 -6.40625 C 14.925781 -7.300781 15.050781 -8.253906 15.25 -9.265625 C 15.445312 -10.285156 15.703125 -11.269531 16.015625 -12.21875 L 21.484375 -28.390625 L 29.578125 -28.390625 L 18.765625 0 Z M 10.8125 0 "/></g></g><g style="fill:#000000;fill-opacity:1;"><g transform="translate(119.77037, 298.973169)"><path style="stroke:none" d="M 15.765625 -28.921875 C 18.390625 -28.921875 20.648438 -28.414062 22.546875 -27.40625 C 24.441406 -26.40625 25.90625 -24.945312 26.9375 -23.03125 C 27.96875 -21.113281 28.484375 -18.773438 28.484375 -16.015625 L 28.484375 -12.265625 L 10.1875 -12.265625 C 10.269531 -10.078125 10.921875 -8.359375 12.140625 -7.109375 C 13.367188 -5.867188 15.078125 -5.25 17.265625 -5.25 C 19.078125 -5.25 20.734375 -5.4375 22.234375 -5.8125 C 23.742188 -6.1875 25.296875 -6.742188 26.890625 -7.484375 L 26.890625 -1.5 C 25.484375 -0.800781 24.015625 -0.289062 22.484375 0.03125 C 20.953125 0.351562 19.09375 0.515625 16.90625 0.515625 C 14.0625 0.515625 11.539062 -0.0078125 9.34375 -1.0625 C 7.15625 -2.113281 5.441406 -3.710938 4.203125 -5.859375 C 2.960938 -8.015625 2.34375 -10.722656 2.34375 -13.984375 C 2.34375 -17.304688 2.90625 -20.070312 4.03125 -22.28125 C 5.15625 -24.488281 6.722656 -26.144531 8.734375 -27.25 C 10.742188 -28.363281 13.085938 -28.921875 15.765625 -28.921875 Z M 15.8125 -23.40625 C 14.3125 -23.40625 13.066406 -22.921875 12.078125 -21.953125 C 11.085938 -20.992188 10.515625 -19.484375 10.359375 -17.421875 L 21.234375 -17.421875 C 21.210938 -18.566406 21.003906 -19.585938 20.609375 -20.484375 C 20.210938 -21.390625 19.617188 -22.101562 18.828125 -22.625 C 18.035156 -23.144531 17.03125 -23.40625 15.8125 -23.40625 Z M 15.8125 -23.40625 "/></g></g><g style="fill:#000000;fill-opacity:1;"><g transform="translate(150.490716, 298.973169)"><path style="stroke:none" d="M 19.90625 -28.921875 C 20.289062 -28.921875 20.742188 -28.898438 21.265625 -28.859375 C 21.785156 -28.816406 22.203125 -28.757812 22.515625 -28.6875 L 21.9375 -21.4375 C 21.6875 -21.519531 21.328125 -21.582031 20.859375 -21.625 C 20.390625 -21.664062 19.988281 -21.6875 19.65625 -21.6875 C 18.65625 -21.6875 17.6875 -21.554688 16.75 -21.296875 C 15.8125 -21.046875 14.96875 -20.632812 14.21875 -20.0625 C 13.476562 -19.5 12.890625 -18.753906 12.453125 -17.828125 C 12.023438 -16.910156 11.8125 -15.785156 11.8125 -14.453125 L 11.8125 0 L 4.0625 0 L 4.0625 -28.390625 L 9.921875 -28.390625 L 11.078125 -23.609375 L 11.453125 -23.609375 C 12.015625 -24.578125 12.710938 -25.460938 13.546875 -26.265625 C 14.378906 -27.066406 15.332031 -27.707031 16.40625 -28.1875 C 17.488281 -28.675781 18.65625 -28.921875 19.90625 -28.921875 Z M 19.90625 -28.921875 "/></g></g><g style="fill:#000000;fill-opacity:1;"><g transform="translate(174.102222, 298.973169)"><path style="stroke:none" d="M 23.875 -8.4375 C 23.875 -6.5 23.421875 -4.863281 22.515625 -3.53125 C 21.609375 -2.207031 20.253906 -1.203125 18.453125 -0.515625 C 16.660156 0.171875 14.425781 0.515625 11.75 0.515625 C 9.769531 0.515625 8.070312 0.382812 6.65625 0.125 C 5.25 -0.125 3.828125 -0.546875 2.390625 -1.140625 L 2.390625 -7.546875 C 3.929688 -6.847656 5.582031 -6.273438 7.34375 -5.828125 C 9.113281 -5.378906 10.671875 -5.15625 12.015625 -5.15625 C 13.515625 -5.15625 14.585938 -5.378906 15.234375 -5.828125 C 15.890625 -6.273438 16.21875 -6.863281 16.21875 -7.59375 C 16.21875 -8.0625 16.085938 -8.488281 15.828125 -8.875 C 15.566406 -9.257812 15.003906 -9.691406 14.140625 -10.171875 C 13.273438 -10.648438 11.921875 -11.28125 10.078125 -12.0625 C 8.304688 -12.800781 6.847656 -13.550781 5.703125 -14.3125 C 4.554688 -15.082031 3.707031 -15.988281 3.15625 -17.03125 C 2.613281 -18.070312 2.34375 -19.394531 2.34375 -21 C 2.34375 -23.625 3.359375 -25.597656 5.390625 -26.921875 C 7.429688 -28.253906 10.160156 -28.921875 13.578125 -28.921875 C 15.335938 -28.921875 17.019531 -28.742188 18.625 -28.390625 C 20.226562 -28.035156 21.875 -27.46875 23.5625 -26.6875 L 21.234375 -21.09375 C 19.828125 -21.707031 18.5 -22.207031 17.25 -22.59375 C 16.007812 -22.988281 14.742188 -23.1875 13.453125 -23.1875 C 12.316406 -23.1875 11.460938 -23.03125 10.890625 -22.71875 C 10.316406 -22.414062 10.03125 -21.953125 10.03125 -21.328125 C 10.03125 -20.867188 10.175781 -20.460938 10.46875 -20.109375 C 10.769531 -19.753906 11.347656 -19.359375 12.203125 -18.921875 C 13.054688 -18.492188 14.3125 -17.941406 15.96875 -17.265625 C 17.582031 -16.609375 18.976562 -15.921875 20.15625 -15.203125 C 21.34375 -14.484375 22.257812 -13.59375 22.90625 -12.53125 C 23.550781 -11.46875 23.875 -10.101562 23.875 -8.4375 Z M 23.875 -8.4375 "/></g></g><g style="fill:#000000;fill-opacity:1;"><g transform="translate(199.947935, 298.973169)"><path style="stroke:none" d="M 15.6875 -28.96875 C 19.5 -28.96875 22.421875 -28.140625 24.453125 -26.484375 C 26.484375 -24.828125 27.5 -22.304688 27.5 -18.921875 L 27.5 0 L 22.09375 0 L 20.59375 -3.859375 L 20.390625 -3.859375 C 19.578125 -2.847656 18.742188 -2.019531 17.890625 -1.375 C 17.046875 -0.726562 16.070312 -0.253906 14.96875 0.046875 C 13.875 0.359375 12.539062 0.515625 10.96875 0.515625 C 9.289062 0.515625 7.785156 0.191406 6.453125 -0.453125 C 5.128906 -1.097656 4.085938 -2.082031 3.328125 -3.40625 C 2.566406 -4.738281 2.1875 -6.429688 2.1875 -8.484375 C 2.1875 -11.492188 3.242188 -13.710938 5.359375 -15.140625 C 7.472656 -16.578125 10.644531 -17.367188 14.875 -17.515625 L 19.8125 -17.671875 L 19.8125 -18.921875 C 19.8125 -20.410156 19.421875 -21.5 18.640625 -22.1875 C 17.859375 -22.882812 16.773438 -23.234375 15.390625 -23.234375 C 14.015625 -23.234375 12.664062 -23.035156 11.34375 -22.640625 C 10.03125 -22.253906 8.710938 -21.765625 7.390625 -21.171875 L 4.828125 -26.40625 C 6.328125 -27.195312 8.015625 -27.820312 9.890625 -28.28125 C 11.765625 -28.738281 13.695312 -28.96875 15.6875 -28.96875 Z M 19.8125 -13.15625 L 16.8125 -13.046875 C 14.300781 -12.984375 12.554688 -12.535156 11.578125 -11.703125 C 10.609375 -10.878906 10.125 -9.789062 10.125 -8.4375 C 10.125 -7.25 10.472656 -6.40625 11.171875 -5.90625 C 11.867188 -5.40625 12.773438 -5.15625 13.890625 -5.15625 C 15.546875 -5.15625 16.945312 -5.644531 18.09375 -6.625 C 19.238281 -7.601562 19.8125 -9 19.8125 -10.8125 Z M 19.8125 -13.15625 "/></g></g><g style="fill:#000000;fill-opacity:1;"><g transform="translate(231.353794, 298.973169)"><path style="stroke:none" d="M 11.8125 0 L 4.0625 0 L 4.0625 -39.515625 L 11.8125 -39.515625 Z M 11.8125 0 "/></g></g><g style="fill:#000000;fill-opacity:1;"><g transform="translate(247.221736, 298.973169)"><path style="stroke:none" d=""/></g></g><g style="fill:#000000;fill-opacity:1;"><g transform="translate(260.728533, 298.973169)"><path style="stroke:none" d="M 16.53125 -37.125 C 21.320312 -37.125 24.816406 -36.09375 27.015625 -34.03125 C 29.210938 -31.976562 30.3125 -29.148438 30.3125 -25.546875 C 30.3125 -23.921875 30.066406 -22.363281 29.578125 -20.875 C 29.085938 -19.394531 28.285156 -18.078125 27.171875 -16.921875 C 26.066406 -15.773438 24.59375 -14.867188 22.75 -14.203125 C 20.90625 -13.535156 18.628906 -13.203125 15.921875 -13.203125 L 12.546875 -13.203125 L 12.546875 0 L 4.671875 0 L 4.671875 -37.125 Z M 16.125 -30.671875 L 12.546875 -30.671875 L 12.546875 -19.65625 L 15.140625 -19.65625 C 16.609375 -19.65625 17.882812 -19.847656 18.96875 -20.234375 C 20.050781 -20.628906 20.890625 -21.238281 21.484375 -22.0625 C 22.078125 -22.894531 22.375 -23.960938 22.375 -25.265625 C 22.375 -27.085938 21.863281 -28.441406 20.84375 -29.328125 C 19.832031 -30.222656 18.257812 -30.671875 16.125 -30.671875 Z M 16.125 -30.671875 "/></g></g><g style="fill:#000000;fill-opacity:1;"><g transform="translate(293.378433, 298.973169)"><path style="stroke:none" d="M 11.8125 -28.390625 L 11.8125 0 L 4.0625 0 L 4.0625 -28.390625 Z M 7.953125 -39.515625 C 9.097656 -39.515625 10.082031 -39.242188 10.90625 -38.703125 C 11.738281 -38.171875 12.15625 -37.175781 12.15625 -35.71875 C 12.15625 -34.28125 11.738281 -33.285156 10.90625 -32.734375 C 10.082031 -32.191406 9.097656 -31.921875 7.953125 -31.921875 C 6.785156 -31.921875 5.789062 -32.191406 4.96875 -32.734375 C 4.144531 -33.285156 3.734375 -34.28125 3.734375 -35.71875 C 3.734375 -37.175781 4.144531 -38.171875 4.96875 -38.703125 C 5.789062 -39.242188 6.785156 -39.515625 7.953125 -39.515625 Z M 7.953125 -39.515625 "/></g></g><g style="fill:#000000;fill-opacity:1;"><g transform="translate(309.246375, 298.973169)"><path style="stroke:none" d="M 20.1875 -28.921875 C 23.21875 -28.921875 25.65625 -28.09375 27.5 -26.4375 C 29.34375 -24.789062 30.265625 -22.148438 30.265625 -18.515625 L 30.265625 0 L 22.515625 0 L 22.515625 -16.578125 C 22.515625 -18.609375 22.144531 -20.140625 21.40625 -21.171875 C 20.675781 -22.203125 19.523438 -22.71875 17.953125 -22.71875 C 15.578125 -22.71875 13.957031 -21.914062 13.09375 -20.3125 C 12.238281 -18.707031 11.8125 -16.390625 11.8125 -13.359375 L 11.8125 0 L 4.0625 0 L 4.0625 -28.390625 L 9.984375 -28.390625 L 11.015625 -24.75 L 11.453125 -24.75 C 12.054688 -25.738281 12.8125 -26.535156 13.71875 -27.140625 C 14.625 -27.753906 15.628906 -28.203125 16.734375 -28.484375 C 17.847656 -28.773438 19 -28.921875 20.1875 -28.921875 Z M 20.1875 -28.921875 "/></g></g><g style="fill:#000000;fill-opacity:1;"><g transform="translate(343.419598, 298.973169)"><path style="stroke:none" d="M 15.765625 -28.921875 C 18.390625 -28.921875 20.648438 -28.414062 22.546875 -27.40625 C 24.441406 -26.40625 25.90625 -24.945312 26.9375 -23.03125 C 27.96875 -21.113281 28.484375 -18.773438 28.484375 -16.015625 L 28.484375 -12.265625 L 10.1875 -12.265625 C 10.269531 -10.078125 10.921875 -8.359375 12.140625 -7.109375 C 13.367188 -5.867188 15.078125 -5.25 17.265625 -5.25 C 19.078125 -5.25 20.734375 -5.4375 22.234375 -5.8125 C 23.742188 -6.1875 25.296875 -6.742188 26.890625 -7.484375 L 26.890625 -1.5 C 25.484375 -0.800781 24.015625 -0.289062 22.484375 0.03125 C 20.953125 0.351562 19.09375 0.515625 16.90625 0.515625 C 14.0625 0.515625 11.539062 -0.0078125 9.34375 -1.0625 C 7.15625 -2.113281 5.441406 -3.710938 4.203125 -5.859375 C 2.960938 -8.015625 2.34375 -10.722656 2.34375 -13.984375 C 2.34375 -17.304688 2.90625 -20.070312 4.03125 -22.28125 C 5.15625 -24.488281 6.722656 -26.144531 8.734375 -27.25 C 10.742188 -28.363281 13.085938 -28.921875 15.765625 -28.921875 Z M 15.8125 -23.40625 C 14.3125 -23.40625 13.066406 -22.921875 12.078125 -21.953125 C 11.085938 -20.992188 10.515625 -19.484375 10.359375 -17.421875 L 21.234375 -17.421875 C 21.210938 -18.566406 21.003906 -19.585938 20.609375 -20.484375 C 20.210938 -21.390625 19.617188 -22.101562 18.828125 -22.625 C 18.035156 -23.144531 17.03125 -23.40625 15.8125 -23.40625 Z M 15.8125 -23.40625 "/></g></g></g></svg>