<svg xmlns="http://www.w3.org/2000/svg" xmlns:xlink="http://www.w3.org/1999/xlink" width="160" zoomAndPan="magnify" viewBox="0 0 120 30.000001" height="40" preserveAspectRatio="xMidYMid meet" version="1.2"><defs/><g id="e8152784d2"><g style="fill:#000000;fill-opacity:1;"><g transform="translate(4.423637, 19.959679)"><path style="stroke:none" d="M 10.390625 -11.046875 L 10.390625 -3.90625 C 10.390625 -3.144531 10.222656 -2.457031 9.890625 -1.84375 C 9.554688 -1.226562 9.046875 -0.738281 8.359375 -0.375 C 7.679688 -0.0195312 6.832031 0.15625 5.8125 0.15625 C 4.34375 0.15625 3.222656 -0.21875 2.453125 -0.96875 C 1.691406 -1.71875 1.3125 -2.707031 1.3125 -3.9375 L 1.3125 -11.046875 L 3.65625 -11.046875 L 3.65625 -4.28125 C 3.65625 -3.375 3.835938 -2.734375 4.203125 -2.359375 C 4.578125 -1.992188 5.128906 -1.8125 5.859375 -1.8125 C 6.378906 -1.8125 6.796875 -1.898438 7.109375 -2.078125 C 7.429688 -2.253906 7.664062 -2.523438 7.8125 -2.890625 C 7.96875 -3.265625 8.046875 -3.734375 8.046875 -4.296875 L 8.046875 -11.046875 Z M 10.390625 -11.046875 "/></g></g><g style="fill:#000000;fill-opacity:1;"><g transform="translate(16.124409, 19.959679)"><path style="stroke:none" d="M 6.015625 -8.609375 C 6.910156 -8.609375 7.632812 -8.363281 8.1875 -7.875 C 8.738281 -7.382812 9.015625 -6.597656 9.015625 -5.515625 L 9.015625 0 L 6.703125 0 L 6.703125 -4.9375 C 6.703125 -5.539062 6.59375 -5.992188 6.375 -6.296875 C 6.15625 -6.609375 5.8125 -6.765625 5.34375 -6.765625 C 4.632812 -6.765625 4.148438 -6.523438 3.890625 -6.046875 C 3.640625 -5.566406 3.515625 -4.878906 3.515625 -3.984375 L 3.515625 0 L 1.203125 0 L 1.203125 -8.453125 L 2.96875 -8.453125 L 3.28125 -7.375 L 3.40625 -7.375 C 3.59375 -7.664062 3.816406 -7.898438 4.078125 -8.078125 C 4.347656 -8.265625 4.648438 -8.398438 4.984375 -8.484375 C 5.316406 -8.566406 5.660156 -8.609375 6.015625 -8.609375 Z M 6.015625 -8.609375 "/></g></g><g style="fill:#000000;fill-opacity:1;"><g transform="translate(26.298335, 19.959679)"><path style="stroke:none" d="M 3.515625 -8.453125 L 3.515625 0 L 1.203125 0 L 1.203125 -8.453125 Z M 2.359375 -11.765625 C 2.703125 -11.765625 3 -11.679688 3.25 -11.515625 C 3.5 -11.359375 3.625 -11.066406 3.625 -10.640625 C 3.625 -10.210938 3.5 -9.914062 3.25 -9.75 C 3 -9.582031 2.703125 -9.5 2.359375 -9.5 C 2.015625 -9.5 1.71875 -9.582031 1.46875 -9.75 C 1.226562 -9.914062 1.109375 -10.210938 1.109375 -10.640625 C 1.109375 -11.066406 1.226562 -11.359375 1.46875 -11.515625 C 1.71875 -11.679688 2.015625 -11.765625 2.359375 -11.765625 Z M 2.359375 -11.765625 "/></g></g><g style="fill:#000000;fill-opacity:1;"><g transform="translate(31.02249, 19.959679)"><path style="stroke:none" d="M 3.21875 0 L 0 -8.453125 L 2.40625 -8.453125 L 4.046875 -3.640625 C 4.140625 -3.359375 4.210938 -3.0625 4.265625 -2.75 C 4.316406 -2.4375 4.351562 -2.15625 4.375 -1.90625 L 4.4375 -1.90625 C 4.445312 -2.175781 4.476562 -2.460938 4.53125 -2.765625 C 4.59375 -3.066406 4.671875 -3.359375 4.765625 -3.640625 L 6.390625 -8.453125 L 8.8125 -8.453125 L 5.59375 0 Z M 3.21875 0 "/></g></g><g style="fill:#000000;fill-opacity:1;"><g transform="translate(39.828308, 19.959679)"><path style="stroke:none" d="M 4.6875 -8.609375 C 5.46875 -8.609375 6.140625 -8.457031 6.703125 -8.15625 C 7.273438 -7.863281 7.710938 -7.429688 8.015625 -6.859375 C 8.328125 -6.285156 8.484375 -5.585938 8.484375 -4.765625 L 8.484375 -3.65625 L 3.03125 -3.65625 C 3.050781 -3 3.242188 -2.484375 3.609375 -2.109375 C 3.984375 -1.742188 4.492188 -1.5625 5.140625 -1.5625 C 5.679688 -1.5625 6.175781 -1.613281 6.625 -1.71875 C 7.070312 -1.832031 7.53125 -2.003906 8 -2.234375 L 8 -0.453125 C 7.582031 -0.242188 7.144531 -0.09375 6.6875 0 C 6.238281 0.101562 5.6875 0.15625 5.03125 0.15625 C 4.1875 0.15625 3.4375 0 2.78125 -0.3125 C 2.132812 -0.625 1.625 -1.097656 1.25 -1.734375 C 0.882812 -2.378906 0.703125 -3.191406 0.703125 -4.171875 C 0.703125 -5.148438 0.867188 -5.96875 1.203125 -6.625 C 1.535156 -7.289062 2 -7.785156 2.59375 -8.109375 C 3.195312 -8.441406 3.894531 -8.609375 4.6875 -8.609375 Z M 4.703125 -6.96875 C 4.253906 -6.96875 3.882812 -6.820312 3.59375 -6.53125 C 3.300781 -6.25 3.128906 -5.800781 3.078125 -5.1875 L 6.328125 -5.1875 C 6.316406 -5.53125 6.25 -5.832031 6.125 -6.09375 C 6.007812 -6.363281 5.832031 -6.578125 5.59375 -6.734375 C 5.363281 -6.890625 5.066406 -6.96875 4.703125 -6.96875 Z M 4.703125 -6.96875 "/></g></g><g style="fill:#000000;fill-opacity:1;"><g transform="translate(48.97426, 19.959679)"><path style="stroke:none" d="M 5.921875 -8.609375 C 6.035156 -8.609375 6.171875 -8.601562 6.328125 -8.59375 C 6.484375 -8.582031 6.609375 -8.566406 6.703125 -8.546875 L 6.53125 -6.375 C 6.457031 -6.40625 6.347656 -6.425781 6.203125 -6.4375 C 6.066406 -6.445312 5.953125 -6.453125 5.859375 -6.453125 C 5.554688 -6.453125 5.265625 -6.414062 4.984375 -6.34375 C 4.703125 -6.269531 4.453125 -6.144531 4.234375 -5.96875 C 4.015625 -5.800781 3.835938 -5.582031 3.703125 -5.3125 C 3.578125 -5.039062 3.515625 -4.703125 3.515625 -4.296875 L 3.515625 0 L 1.203125 0 L 1.203125 -8.453125 L 2.953125 -8.453125 L 3.296875 -7.03125 L 3.40625 -7.03125 C 3.570312 -7.320312 3.78125 -7.585938 4.03125 -7.828125 C 4.28125 -8.066406 4.566406 -8.253906 4.890625 -8.390625 C 5.210938 -8.535156 5.554688 -8.609375 5.921875 -8.609375 Z M 5.921875 -8.609375 "/></g></g><g style="fill:#000000;fill-opacity:1;"><g transform="translate(56.003794, 19.959679)"><path style="stroke:none" d="M 7.109375 -2.515625 C 7.109375 -1.929688 6.972656 -1.441406 6.703125 -1.046875 C 6.429688 -0.660156 6.023438 -0.363281 5.484375 -0.15625 C 4.953125 0.0507812 4.289062 0.15625 3.5 0.15625 C 2.90625 0.15625 2.398438 0.113281 1.984375 0.03125 C 1.566406 -0.0390625 1.140625 -0.164062 0.703125 -0.34375 L 0.703125 -2.25 C 1.171875 -2.039062 1.664062 -1.867188 2.1875 -1.734375 C 2.71875 -1.597656 3.179688 -1.53125 3.578125 -1.53125 C 4.023438 -1.53125 4.34375 -1.597656 4.53125 -1.734375 C 4.726562 -1.867188 4.828125 -2.046875 4.828125 -2.265625 C 4.828125 -2.398438 4.785156 -2.523438 4.703125 -2.640625 C 4.628906 -2.753906 4.460938 -2.882812 4.203125 -3.03125 C 3.953125 -3.175781 3.550781 -3.363281 3 -3.59375 C 2.46875 -3.8125 2.03125 -4.035156 1.6875 -4.265625 C 1.351562 -4.492188 1.101562 -4.757812 0.9375 -5.0625 C 0.78125 -5.375 0.703125 -5.769531 0.703125 -6.25 C 0.703125 -7.03125 1.003906 -7.617188 1.609375 -8.015625 C 2.210938 -8.410156 3.023438 -8.609375 4.046875 -8.609375 C 4.566406 -8.609375 5.066406 -8.554688 5.546875 -8.453125 C 6.023438 -8.347656 6.515625 -8.179688 7.015625 -7.953125 L 6.328125 -6.28125 C 5.898438 -6.46875 5.5 -6.617188 5.125 -6.734375 C 4.757812 -6.847656 4.382812 -6.90625 4 -6.90625 C 3.664062 -6.90625 3.410156 -6.859375 3.234375 -6.765625 C 3.066406 -6.671875 2.984375 -6.53125 2.984375 -6.34375 C 2.984375 -6.207031 3.023438 -6.085938 3.109375 -5.984375 C 3.203125 -5.878906 3.375 -5.757812 3.625 -5.625 C 3.882812 -5.5 4.257812 -5.335938 4.75 -5.140625 C 5.226562 -4.941406 5.644531 -4.734375 6 -4.515625 C 6.351562 -4.304688 6.625 -4.046875 6.8125 -3.734375 C 7.007812 -3.421875 7.109375 -3.015625 7.109375 -2.515625 Z M 7.109375 -2.515625 "/></g></g><g style="fill:#000000;fill-opacity:1;"><g transform="translate(63.698487, 19.959679)"><path style="stroke:none" d="M 4.671875 -8.625 C 5.804688 -8.625 6.675781 -8.375 7.28125 -7.875 C 7.882812 -7.382812 8.1875 -6.632812 8.1875 -5.625 L 8.1875 0 L 6.578125 0 L 6.125 -1.15625 L 6.078125 -1.15625 C 5.828125 -0.851562 5.578125 -0.601562 5.328125 -0.40625 C 5.078125 -0.21875 4.785156 -0.078125 4.453125 0.015625 C 4.128906 0.109375 3.734375 0.15625 3.265625 0.15625 C 2.765625 0.15625 2.316406 0.0625 1.921875 -0.125 C 1.523438 -0.320312 1.210938 -0.617188 0.984375 -1.015625 C 0.765625 -1.410156 0.65625 -1.914062 0.65625 -2.53125 C 0.65625 -3.425781 0.96875 -4.085938 1.59375 -4.515625 C 2.226562 -4.941406 3.175781 -5.175781 4.4375 -5.21875 L 5.890625 -5.265625 L 5.890625 -5.625 C 5.890625 -6.070312 5.773438 -6.398438 5.546875 -6.609375 C 5.316406 -6.816406 4.992188 -6.921875 4.578125 -6.921875 C 4.171875 -6.921875 3.769531 -6.859375 3.375 -6.734375 C 2.988281 -6.617188 2.597656 -6.476562 2.203125 -6.3125 L 1.4375 -7.859375 C 1.882812 -8.097656 2.382812 -8.285156 2.9375 -8.421875 C 3.5 -8.554688 4.078125 -8.625 4.671875 -8.625 Z M 5.890625 -3.921875 L 5 -3.890625 C 4.257812 -3.867188 3.742188 -3.734375 3.453125 -3.484375 C 3.160156 -3.234375 3.015625 -2.910156 3.015625 -2.515625 C 3.015625 -2.160156 3.117188 -1.90625 3.328125 -1.75 C 3.535156 -1.601562 3.804688 -1.53125 4.140625 -1.53125 C 4.628906 -1.53125 5.039062 -1.675781 5.375 -1.96875 C 5.71875 -2.257812 5.890625 -2.675781 5.890625 -3.21875 Z M 5.890625 -3.921875 "/></g></g><g style="fill:#000000;fill-opacity:1;"><g transform="translate(73.048528, 19.959679)"><path style="stroke:none" d="M 3.515625 0 L 1.203125 0 L 1.203125 -11.765625 L 3.515625 -11.765625 Z M 3.515625 0 "/></g></g><g style="fill:#000000;fill-opacity:1;"><g transform="translate(77.772682, 19.959679)"><path style="stroke:none" d=""/></g></g><g style="fill:#000000;fill-opacity:1;"><g transform="translate(81.793878, 19.959679)"><path style="stroke:none" d="M 4.921875 -11.046875 C 6.347656 -11.046875 7.390625 -10.738281 8.046875 -10.125 C 8.703125 -9.519531 9.03125 -8.679688 9.03125 -7.609375 C 9.03125 -7.117188 8.957031 -6.65625 8.8125 -6.21875 C 8.664062 -5.78125 8.425781 -5.390625 8.09375 -5.046875 C 7.757812 -4.703125 7.316406 -4.429688 6.765625 -4.234375 C 6.222656 -4.035156 5.546875 -3.9375 4.734375 -3.9375 L 3.734375 -3.9375 L 3.734375 0 L 1.390625 0 L 1.390625 -11.046875 Z M 4.796875 -9.140625 L 3.734375 -9.140625 L 3.734375 -5.859375 L 4.5 -5.859375 C 4.9375 -5.859375 5.316406 -5.914062 5.640625 -6.03125 C 5.960938 -6.144531 6.210938 -6.320312 6.390625 -6.5625 C 6.566406 -6.8125 6.65625 -7.128906 6.65625 -7.515625 C 6.65625 -8.066406 6.503906 -8.472656 6.203125 -8.734375 C 5.898438 -9.003906 5.429688 -9.140625 4.796875 -9.140625 Z M 4.796875 -9.140625 "/></g></g><g style="fill:#000000;fill-opacity:1;"><g transform="translate(91.514286, 19.959679)"><path style="stroke:none" d="M 3.515625 -8.453125 L 3.515625 0 L 1.203125 0 L 1.203125 -8.453125 Z M 2.359375 -11.765625 C 2.703125 -11.765625 3 -11.679688 3.25 -11.515625 C 3.5 -11.359375 3.625 -11.066406 3.625 -10.640625 C 3.625 -10.210938 3.5 -9.914062 3.25 -9.75 C 3 -9.582031 2.703125 -9.5 2.359375 -9.5 C 2.015625 -9.5 1.71875 -9.582031 1.46875 -9.75 C 1.226562 -9.914062 1.109375 -10.210938 1.109375 -10.640625 C 1.109375 -11.066406 1.226562 -11.359375 1.46875 -11.515625 C 1.71875 -11.679688 2.015625 -11.765625 2.359375 -11.765625 Z M 2.359375 -11.765625 "/></g></g><g style="fill:#000000;fill-opacity:1;"><g transform="translate(96.23844, 19.959679)"><path style="stroke:none" d="M 6.015625 -8.609375 C 6.910156 -8.609375 7.632812 -8.363281 8.1875 -7.875 C 8.738281 -7.382812 9.015625 -6.597656 9.015625 -5.515625 L 9.015625 0 L 6.703125 0 L 6.703125 -4.9375 C 6.703125 -5.539062 6.59375 -5.992188 6.375 -6.296875 C 6.15625 -6.609375 5.8125 -6.765625 5.34375 -6.765625 C 4.632812 -6.765625 4.148438 -6.523438 3.890625 -6.046875 C 3.640625 -5.566406 3.515625 -4.878906 3.515625 -3.984375 L 3.515625 0 L 1.203125 0 L 1.203125 -8.453125 L 2.96875 -8.453125 L 3.28125 -7.375 L 3.40625 -7.375 C 3.59375 -7.664062 3.816406 -7.898438 4.078125 -8.078125 C 4.347656 -8.265625 4.648438 -8.398438 4.984375 -8.484375 C 5.316406 -8.566406 5.660156 -8.609375 6.015625 -8.609375 Z M 6.015625 -8.609375 "/></g></g><g style="fill:#000000;fill-opacity:1;"><g transform="translate(106.412367, 19.959679)"><path style="stroke:none" d="M 4.6875 -8.609375 C 5.46875 -8.609375 6.140625 -8.457031 6.703125 -8.15625 C 7.273438 -7.863281 7.710938 -7.429688 8.015625 -6.859375 C 8.328125 -6.285156 8.484375 -5.585938 8.484375 -4.765625 L 8.484375 -3.65625 L 3.03125 -3.65625 C 3.050781 -3 3.242188 -2.484375 3.609375 -2.109375 C 3.984375 -1.742188 4.492188 -1.5625 5.140625 -1.5625 C 5.679688 -1.5625 6.175781 -1.613281 6.625 -1.71875 C 7.070312 -1.832031 7.53125 -2.003906 8 -2.234375 L 8 -0.453125 C 7.582031 -0.242188 7.144531 -0.09375 6.6875 0 C 6.238281 0.101562 5.6875 0.15625 5.03125 0.15625 C 4.1875 0.15625 3.4375 0 2.78125 -0.3125 C 2.132812 -0.625 1.625 -1.097656 1.25 -1.734375 C 0.882812 -2.378906 0.703125 -3.191406 0.703125 -4.171875 C 0.703125 -5.148438 0.867188 -5.96875 1.203125 -6.625 C 1.535156 -7.289062 2 -7.785156 2.59375 -8.109375 C 3.195312 -8.441406 3.894531 -8.609375 4.6875 -8.609375 Z M 4.703125 -6.96875 C 4.253906 -6.96875 3.882812 -6.820312 3.59375 -6.53125 C 3.300781 -6.25 3.128906 -5.800781 3.078125 -5.1875 L 6.328125 -5.1875 C 6.316406 -5.53125 6.25 -5.832031 6.125 -6.09375 C 6.007812 -6.363281 5.832031 -6.578125 5.59375 -6.734375 C 5.363281 -6.890625 5.066406 -6.96875 4.703125 -6.96875 Z M 4.703125 -6.96875 "/></g></g></g></svg>